<?xml version="1.0" encoding="UTF-8" standalone="no"?><!DOCTYPE svg PUBLIC "-//W3C//DTD SVG 1.1//EN" "http://www.w3.org/Graphics/SVG/1.1/DTD/svg11.dtd"><svg width="100%" height="100%" viewBox="0 0 425 425" version="1.1" xmlns="http://www.w3.org/2000/svg" xmlns:xlink="http://www.w3.org/1999/xlink" xml:space="preserve" xmlns:serif="http://www.serif.com/" style="fill-rule:evenodd;clip-rule:evenodd;stroke-linejoin:round;stroke-miterlimit:2;"><rect id="Artboard1" x="-3822.17" y="-8637.5" width="8000" height="25016.7" style="fill:none;"/><g></g><g><path d="M62.336,283.594c7.259,-4.665 15.045,-20.17 38.479,-19.881l25.78,0c7.752,0.021 15.199,-3.079 20.665,-8.603l108.056,-108.596c5.497,-5.494 8.582,-12.977 8.561,-20.768l-0,-25.91c-0,-25.918 20.7,-47.275 46.144,-47.606c0.206,-0.002 0.413,-0.004 0.619,-0.004c25.654,0 46.763,21.215 46.764,46.997c25.653,0 46.763,21.215 46.763,46.997c-0,0.208 -0.002,0.415 -0.004,0.622c-0.33,25.572 -21.58,46.375 -47.37,46.375l-25.78,0c-7.752,-0.021 -15.199,3.079 -20.665,8.604l-13.111,13.175l-94.945,95.421c-5.497,5.493 -8.582,12.977 -8.56,20.768l-0,25.91c-0,25.918 -20.701,47.274 -46.145,47.606c-0.208,0.004 -0.418,0.004 -0.625,0.004c-25.652,-0.004 -46.757,-21.218 -46.757,-46.997c-0.002,-0 -0.003,-0 -0.004,-0c-25.654,-0 -46.764,-21.216 -46.764,-46.998c0,-0.207 0.001,-0.414 0.004,-0.621c0.114,-9.431 3.098,-18.604 8.549,-26.281l0.346,-0.214Z" style="fill:#82bb1b;fill-opacity:0.2;"/><g><path d="M287.29,198.38l-9.035,-9.036l14.328,-14.33c8.367,-8.411 19.763,-13.131 31.627,-13.098l28.178,0c21.234,0 38.728,-16.968 38.999,-37.824c0.002,-0.17 0.003,-0.341 0.003,-0.511c0,-21.03 -17.305,-38.335 -38.335,-38.335l-0.013,-0c-0.023,-0 -0.046,0 -0.068,0c-6.967,0 -12.699,-5.732 -12.699,-12.698l0,-0.084c0,-21.03 -17.305,-38.335 -38.335,-38.335c-0.17,-0 -0.341,0.001 -0.511,0.003c-20.856,0.274 -37.824,17.769 -37.824,39.002l-0,28.179c0.033,11.864 -4.687,23.26 -13.098,31.626l-118.107,118.106c-8.367,8.411 -19.763,13.131 -31.626,13.098l-28.178,-0c-7.06,-0.001 -13.992,1.897 -20.066,5.495l-6.517,-10.991c8.047,-4.768 17.23,-7.283 26.583,-7.282l28.179,-0c8.473,0.023 16.613,-3.349 22.587,-9.357l118.108,-118.108c6.008,-5.974 9.38,-14.114 9.357,-22.587l-0,-28.179c-0,-28.188 22.625,-51.415 50.437,-51.775c0.225,-0.003 0.451,-0.005 0.676,-0.005c28.04,0 51.113,23.074 51.114,51.113c28.039,0.001 51.113,23.074 51.113,51.114c-0,0.225 -0.002,0.451 -0.005,0.676c-0.36,27.812 -23.587,50.437 -51.775,50.437l-28.179,0c-8.473,-0.023 -16.613,3.349 -22.587,9.357l-14.331,14.329Zm-257.13,74.84c-5.958,8.349 -9.219,18.325 -9.344,28.582c-0.003,0.225 -0.004,0.451 -0.004,0.676c-0,28.04 23.073,51.113 51.113,51.113c0.002,0 0.003,0 0.005,0c-0,28.038 23.069,51.11 51.106,51.114c0.227,-0 0.456,-0 0.683,-0.005c27.812,-0.36 50.437,-23.587 50.437,-51.775l0,-28.179c-0.023,-8.473 3.349,-16.613 9.357,-22.587l93.595,-93.596l-9.036,-9.036l-93.596,93.594c-8.411,8.367 -13.131,19.763 -13.098,31.626l0,28.179c0,21.234 -16.968,38.728 -37.824,38.999c-0.168,0.002 -0.337,0.003 -0.506,0.003c-21.032,0 -38.34,-17.307 -38.34,-38.34c0,-7.827 2.398,-15.471 6.868,-21.896l-10.48,-7.311c-3.5,5.012 -6.067,10.615 -7.576,16.538c-0.524,-0.067 -1.051,-0.102 -1.578,-0.106l-0.016,0c-21.03,0 -38.335,-17.305 -38.335,-38.335c0,-0.17 0.001,-0.341 0.003,-0.511c0.094,-7.659 2.53,-15.109 6.98,-21.344l-10.414,-7.403Zm254.484,-141.379l-153.341,153.341l9.036,9.036l153.341,-153.341l-9.036,-9.036Zm-225.493,170.637c0.008,-7.007 5.772,-12.77 12.779,-12.778l-0,-12.779c-14.014,0.016 -25.541,11.543 -25.557,25.557l12.778,0Zm274.151,-211.759l-6.595,-10.946c-10.93,6.563 -19.014,16.988 -22.65,29.207l12.248,3.645c2.729,-9.166 8.796,-16.986 16.997,-21.906Z" style="fill:#82bb1b;fill-rule:nonzero;"/></g><g><path d="M292.629,346.803l-0,-69.466l-15.509,-0l-24.266,23.954l10.207,10.727l11.666,-11.769l-0,46.554l17.902,0Z" style="fill:#82bb1b;fill-rule:nonzero;"/><path d="M319.299,311.074c11.147,-0 18.325,-7.594 18.325,-17.285c0,-9.796 -7.178,-17.494 -18.325,-17.494c-10.938,0 -18.012,7.698 -18.012,17.494c-0,9.691 7.074,17.285 18.012,17.285Zm2.19,35.729l44.479,-69.466l-9.174,-0l-44.375,69.466l9.07,0Zm37.182,1.25c10.938,0 18.117,-7.594 18.117,-17.285c-0,-9.796 -7.179,-17.494 -18.117,-17.494c-11.043,0 -18.117,7.698 -18.117,17.494c-0,9.691 7.074,17.285 18.117,17.285Zm-39.372,-46.549c-3.961,-0 -6.985,-2.711 -6.985,-7.715c0,-5.213 3.024,-7.923 6.985,-7.923c4.066,-0 7.194,2.71 7.194,7.923c-0,5.004 -3.128,7.715 -7.194,7.715Zm39.372,36.979c-4.066,-0 -7.089,-2.607 -7.089,-7.715c-0,-5.213 3.023,-7.923 7.089,-7.923c4.066,-0 7.089,2.71 7.089,7.923c-0,5.108 -3.023,7.715 -7.089,7.715Z" style="fill:#82bb1b;fill-rule:nonzero;"/></g></g></svg>