<?xml version="1.0" encoding="UTF-8" standalone="no"?><!DOCTYPE svg PUBLIC "-//W3C//DTD SVG 1.1//EN" "http://www.w3.org/Graphics/SVG/1.1/DTD/svg11.dtd"><svg width="100%" height="100%" viewBox="0 0 505 505" version="1.1" xmlns="http://www.w3.org/2000/svg" xmlns:xlink="http://www.w3.org/1999/xlink" xml:space="preserve" xmlns:serif="http://www.serif.com/" style="fill-rule:evenodd;clip-rule:evenodd;stroke-linejoin:round;stroke-miterlimit:2;"><rect id="Artboard1" x="-5730.5" y="-8637.5" width="8000" height="25016.7" style="fill:none;"/><g><path d="M390.836,179.814l-35.865,-14.991l-1.382,-2.977c-5.609,-12.359 -17.43,-20.808 -30.939,-22.115l-5.281,-0.496l-11.695,-31.896c-1.281,-3.475 -4.611,-5.796 -8.314,-5.796c-2.54,-0 -4.961,1.092 -6.642,2.996c-17.72,20.095 -20.91,38.984 -21.264,47.526c-13.404,13.367 -22.955,30.106 -27.644,48.446c-0.62,2.292 -1.39,4.542 -2.303,6.734c-0,0.213 -0.213,0.425 -0.319,0.673c-0.158,0.287 -0.3,0.583 -0.425,0.886c-3.208,8.946 -11.761,14.933 -21.264,14.885l-101.926,0c-25.833,-0.096 -47.085,-21.268 -47.278,-47.1l0,-0.567c0,-15.709 12.927,-28.636 28.636,-28.636c15.709,0 28.636,12.927 28.636,28.636l-0,0.567c-0,5.424 -4.464,9.888 -9.888,9.888c-5.424,-0 -9.888,-4.464 -9.888,-9.888l0,-0.567c0,-4.86 -4,-8.86 -8.86,-8.86c-4.86,0 -8.86,4 -8.86,8.86l-0,0.567c-0,15.145 12.463,27.608 27.608,27.608c15.145,0 27.608,-12.463 27.608,-27.608l-0,-0.567c-0,-25.43 -20.926,-46.356 -46.356,-46.356c-25.43,0 -46.356,20.926 -46.356,46.356l0,0.567c0.025,24.384 13.739,46.792 35.44,57.909c-15.398,25.842 -18.456,57.263 -8.328,85.588l-12.298,22.505c-7.839,14.303 -9.871,31.092 -5.67,46.852l7.832,29.557c2.69,10.77 12.362,18.44 23.461,18.606l0.319,0c13.168,-0.104 23.944,-10.966 23.944,-24.134c0,-2.082 -0.269,-4.155 -0.801,-6.167l-7.939,-30.195l30.55,-15.559c11.52,-5.842 20.394,-15.858 24.808,-27.997l4.394,-12.05c0,0 0.213,0.354 0.319,0.532l16.551,21.441c5.14,6.709 4.933,16.168 -0.496,22.646l-11.695,13.857c-1.985,2.356 -2.603,5.584 -1.631,8.506l12.192,36.539c1.296,3.446 4.611,5.741 8.293,5.741c4.86,0 8.86,-3.999 8.86,-8.86c-0,-0.839 -0.12,-1.675 -0.355,-2.481l-10.632,-31.896l8.471,-10.065c10.746,-12.855 11.145,-31.602 0.956,-44.903l-7.69,-9.746l65.493,12.901l12.263,80.626c1.576,11.021 10.95,19.387 22.079,19.705c11.745,0.112 21.703,-8.99 22.646,-20.697l5.104,-64.183c0.88,-10.96 3.204,-21.756 6.91,-32.108l26.332,27.714c4.998,5.328 5.648,13.474 1.56,19.527l-18.146,26.581c-1.005,1.472 -1.543,3.214 -1.543,4.997c0,4.861 4,8.861 8.862,8.861c2.925,0 5.669,-1.448 7.318,-3.864l18.146,-26.58c8.741,-12.935 7.335,-30.349 -3.367,-41.714l-31.542,-33.207c9.864,-22.789 11.124,-48.403 3.544,-72.05c7.03,1.612 14.293,1.948 21.441,0.992l1.241,0c13.157,-1.729 25.308,-7.998 34.341,-17.72l4.572,-4.961c2.969,-3.187 4.621,-7.385 4.621,-11.74c-0,-6.944 -4.199,-13.237 -10.61,-15.904l0.141,-0.177Z" style="fill:#00baff;fill-opacity:0.2;"/><path d="M362.375,165.893l-35.865,-14.991l-1.383,-2.977c-5.609,-12.359 -17.43,-20.808 -30.939,-22.114l-5.28,-0.497l-11.696,-31.896c-1.28,-3.474 -4.61,-5.796 -8.313,-5.796c-2.54,-0 -4.962,1.092 -6.643,2.996c-17.72,20.095 -20.909,38.985 -21.264,47.526c-13.403,13.367 -22.955,30.106 -27.643,48.446c-0.621,2.293 -1.39,4.542 -2.304,6.734c0,0.213 -0.212,0.425 -0.319,0.673c-0.158,0.287 -0.3,0.583 -0.425,0.886c-3.208,8.947 -11.76,14.933 -21.264,14.885l-101.926,0c-25.832,-0.095 -47.084,-21.268 -47.277,-47.1l-0,-0.567c-0,-15.709 12.927,-28.635 28.636,-28.635c15.709,-0 28.635,12.926 28.635,28.635l0,0.567c0,5.425 -4.463,9.888 -9.888,9.888c-5.424,0 -9.887,-4.463 -9.887,-9.888l-0,-0.567c-0,-4.86 -4,-8.86 -8.86,-8.86c-4.861,0 -8.86,4 -8.86,8.86l-0,0.567c-0,15.146 12.462,27.608 27.607,27.608c15.146,0 27.608,-12.462 27.608,-27.608l0,-0.567c0,-25.43 -20.925,-46.355 -46.355,-46.355c-25.43,-0 -46.356,20.925 -46.356,46.355l-0,0.567c0.024,24.384 13.738,46.792 35.44,57.91c-15.398,25.841 -18.456,57.262 -8.328,85.588l-12.298,22.504c-7.839,14.303 -9.871,31.092 -5.671,46.852l7.833,29.557c2.689,10.77 12.362,18.44 23.461,18.606l0.319,0c13.167,-0.104 23.944,-10.966 23.944,-24.134c-0,-2.082 -0.27,-4.155 -0.802,-6.167l-7.938,-30.195l30.549,-15.558c11.52,-5.843 20.395,-15.859 24.808,-27.998l4.395,-12.05c0,0 0.213,0.355 0.319,0.532l16.551,21.441c5.14,6.71 4.932,16.169 -0.497,22.646l-11.695,13.857c-1.984,2.356 -2.603,5.584 -1.63,8.506l12.191,36.539c1.296,3.446 4.611,5.741 8.293,5.741c4.861,0 8.86,-3.999 8.86,-8.86c0,-0.839 -0.119,-1.675 -0.354,-2.481l-10.632,-31.896l8.47,-10.065c10.746,-12.854 11.146,-31.602 0.957,-44.902l-7.691,-9.747l65.494,12.901l12.262,80.626c1.576,11.021 10.951,19.387 22.079,19.705c11.746,0.112 21.704,-8.989 22.647,-20.697l5.103,-64.182c0.881,-10.961 3.204,-21.757 6.911,-32.109l26.332,27.714c4.997,5.328 5.648,13.474 1.559,19.528l-18.145,26.58c-1.005,1.472 -1.543,3.214 -1.543,4.997c-0,4.861 4,8.861 8.861,8.861c2.926,0 5.669,-1.448 7.319,-3.864l18.145,-26.58c8.741,-12.935 7.336,-30.348 -3.367,-41.713l-31.541,-33.208c9.864,-22.789 11.124,-48.403 3.544,-72.05c7.03,1.612 14.292,1.948 21.441,0.993l1.24,-0c13.158,-1.73 25.308,-7.999 34.342,-17.72l4.572,-4.962c2.968,-3.187 4.62,-7.384 4.62,-11.74c0,-6.944 -4.198,-13.237 -10.61,-15.903l0.142,-0.178Zm-11.589,20.52c-6.22,6.689 -14.583,11.002 -23.639,12.192l-1.275,-0c-6.19,0.866 -12.494,0.358 -18.465,-1.489l-13.502,-4.288c-0.873,-0.279 -1.784,-0.421 -2.7,-0.421c-4.86,-0 -8.86,3.999 -8.86,8.86c0,1.498 0.38,2.972 1.105,4.284c13.376,24.3 14.012,53.678 1.701,78.535c-7.966,16.217 -12.777,33.801 -14.176,51.814l-5.139,64.147c-0.133,2.534 -2.32,4.514 -4.855,4.394c-2.456,-0.238 -4.422,-2.189 -4.678,-4.642l-13.291,-86.9c-0.561,-3.701 -3.411,-6.665 -7.088,-7.371l-101.11,-19.918c-4.239,-0.863 -8.519,1.511 -10.03,5.564l-8.116,22.292c-2.878,7.93 -8.672,14.472 -16.196,18.287l-36.893,18.89c-3.691,1.888 -5.588,6.126 -4.536,10.136l9.746,37.106c0.139,0.532 0.21,1.08 0.21,1.63c0,3.505 -2.872,6.394 -6.377,6.415c-3.112,-0.139 -5.759,-2.377 -6.415,-5.423l-7.832,-29.521c-3.004,-11.354 -1.532,-23.439 4.111,-33.739l14.176,-26.084c1.262,-2.31 1.431,-5.067 0.461,-7.514l-0,-0.354c-10.143,-25.251 -7.252,-53.938 7.726,-76.657c4.109,0.814 8.286,1.229 12.475,1.24l101.961,0c16.638,-0.014 31.617,-10.377 37.496,-25.942c1.474,-3.147 2.661,-6.421 3.544,-9.781c3.544,-11.2 8.612,-28.105 25.481,-43.167c2.137,-1.907 3.222,-4.737 2.906,-7.584c0.056,-9.206 2.71,-18.212 7.656,-25.977l7.903,21.441c1.255,3.054 4.117,5.164 7.407,5.458l10.844,1.027c7.193,0.694 13.489,5.189 16.48,11.767l2.764,6.131c0.918,2.044 2.578,3.666 4.643,4.536l38.488,16.196l-4.111,4.43Z" style="fill:#00baff;fill-rule:nonzero;"/><g><path d="M410.959,302.658l0,-69.467l-15.508,0l-24.267,23.954l10.208,10.727l11.665,-11.768l0,46.554l17.902,-0Z" style="fill:#00baff;fill-rule:nonzero;"/><path d="M437.63,266.928c11.147,0 18.325,-7.593 18.325,-17.285c0,-9.795 -7.178,-17.493 -18.325,-17.493c-10.938,-0 -18.013,7.698 -18.013,17.493c0,9.692 7.075,17.285 18.013,17.285Zm2.189,35.73l44.48,-69.467l-9.174,0l-44.376,69.467l9.07,-0Zm37.182,1.25c10.939,-0 18.117,-7.594 18.117,-17.286c0,-9.795 -7.178,-17.493 -18.117,-17.493c-11.042,-0 -18.116,7.698 -18.116,17.493c-0,9.692 7.074,17.286 18.116,17.286Zm-39.371,-46.55c-3.962,0 -6.985,-2.711 -6.985,-7.715c0,-5.212 3.023,-7.923 6.985,-7.923c4.066,0 7.193,2.711 7.193,7.923c0,5.004 -3.127,7.715 -7.193,7.715Zm39.371,36.979c-4.065,0 -7.089,-2.606 -7.089,-7.715c0,-5.212 3.024,-7.923 7.089,-7.923c4.066,0 7.09,2.711 7.09,7.923c-0,5.109 -3.024,7.715 -7.09,7.715Z" style="fill:#00baff;fill-rule:nonzero;"/></g></g><g></g></svg>