<?xml version="1.0" encoding="UTF-8" standalone="no"?><!DOCTYPE svg PUBLIC "-//W3C//DTD SVG 1.1//EN" "http://www.w3.org/Graphics/SVG/1.1/DTD/svg11.dtd"><svg width="100%" height="100%" viewBox="0 0 417 417" version="1.1" xmlns="http://www.w3.org/2000/svg" xmlns:xlink="http://www.w3.org/1999/xlink" xml:space="preserve" xmlns:serif="http://www.serif.com/" style="fill-rule:evenodd;clip-rule:evenodd;stroke-linecap:round;stroke-linejoin:round;stroke-miterlimit:2;"><g><g><g><path d="M184.057,119.16c10.862,-20.572 18.24,-45.245 17.332,-78.808c97.993,55.915 85.534,150.1 85.534,150.1c-0,0 21.164,-11.078 21.164,-38.649c24.375,39.649 35.097,77.908 35.097,110.489c0,51.514 -33.697,95.158 -80.252,110.091c19.19,-11.918 31.967,-33.184 31.967,-57.435c-0,-56.409 -52.532,-64.616 -53.007,-129.719c-53.16,41.183 -38.693,111.774 -38.693,111.774c0,0 -26.597,-8.51 -22.91,-46.633c-15.005,23.174 -20.513,45.535 -20.513,64.578c-0,24.019 12.534,45.111 31.418,57.091c-46.008,-15.25 -79.197,-58.623 -79.197,-109.747c-0,-44.323 19.504,-70.705 40.299,-97.317" style="fill:none;stroke:#ff6700;stroke-width:17.36px;"/><path d="M220.708,394.175c-46.008,-15.25 -79.197,-58.623 -79.197,-109.748c-0,-96.511 92.475,-107.956 89.392,-221.94c97.993,55.916 85.534,150.101 85.534,150.101c-0,-0 21.164,-11.078 21.164,-38.649c24.375,39.649 35.097,77.907 35.097,110.488c0,51.515 -33.697,95.159 -80.252,110.092c19.19,-11.918 31.967,-33.185 31.967,-57.436c-0,-56.409 -52.532,-64.615 -53.007,-129.718c-53.16,41.182 -38.693,111.774 -38.693,111.774c0,-0 -26.597,-8.51 -22.91,-46.634c-15.005,23.174 -20.514,45.535 -20.514,64.578c0,24.02 12.535,45.111 31.419,57.092Z" style="fill:#ff6700;fill-opacity:0.2;"/></g></g><g><path d="M63.965,137.318l-0,-69.467l-15.509,0l-24.266,23.954l10.207,10.727l11.666,-11.768l-0,46.554l17.902,-0Z" style="fill:#ff6700;fill-rule:nonzero;"/><path d="M90.635,101.588c11.147,0 18.326,-7.593 18.326,-17.285c-0,-9.795 -7.179,-17.493 -18.326,-17.493c-10.938,-0 -18.012,7.698 -18.012,17.493c-0,9.692 7.074,17.285 18.012,17.285Zm2.19,35.73l44.479,-69.467l-9.174,0l-44.375,69.467l9.07,-0Zm37.182,1.25c10.938,-0 18.117,-7.594 18.117,-17.286c-0,-9.795 -7.179,-17.493 -18.117,-17.493c-11.043,-0 -18.117,7.698 -18.117,17.493c-0,9.692 7.074,17.286 18.117,17.286Zm-39.372,-46.55c-3.961,0 -6.985,-2.711 -6.985,-7.715c0,-5.212 3.024,-7.923 6.985,-7.923c4.066,0 7.194,2.711 7.194,7.923c-0,5.004 -3.128,7.715 -7.194,7.715Zm39.372,36.979c-4.066,0 -7.089,-2.606 -7.089,-7.715c-0,-5.212 3.023,-7.923 7.089,-7.923c4.066,0 7.089,2.711 7.089,7.923c-0,5.109 -3.023,7.715 -7.089,7.715Z" style="fill:#ff6700;fill-rule:nonzero;"/></g></g></svg>