<?xml version="1.0" encoding="UTF-8" standalone="no"?><!DOCTYPE svg PUBLIC "-//W3C//DTD SVG 1.1//EN" "http://www.w3.org/Graphics/SVG/1.1/DTD/svg11.dtd"><svg width="100%" height="100%" viewBox="0 0 659 659" version="1.1" xmlns="http://www.w3.org/2000/svg" xmlns:xlink="http://www.w3.org/1999/xlink" xml:space="preserve" xmlns:serif="http://www.serif.com/" style="fill-rule:evenodd;clip-rule:evenodd;stroke-linecap:round;stroke-linejoin:round;stroke-miterlimit:2;"><rect id="Artboard1" x="-1884.67" y="-10008.3" width="8000" height="25016.7" style="fill:none;"/><g></g><g><g><g><path d="M422.988,300.622c-3.945,13.168 -7.891,26.337 -11.836,39.505c-4.945,16.503 4.6,34.278 22.145,39.535c17.546,5.257 35.292,-4.34 40.237,-20.844l33.77,-112.71c4.945,-16.504 -4.6,-34.279 -22.145,-39.536c-17.545,-5.256 -35.292,4.341 -40.237,20.845l-11.625,38.798m-31.728,225.014c21.447,6.426 42.324,-7.936 48.957,-30.076c5.778,-19.283 -4.666,-42.578 -25.333,-48.77c-23.786,-7.127 -45.318,6.587 -51.104,25.897c-6.746,22.515 3.694,45.822 27.48,52.949Z" style="fill:none;fill-rule:nonzero;stroke:#b27c67;stroke-width:14.47px;"/><path d="M92.497,399.626l20.551,47.604c8.512,19.808 21.444,28.659 39.149,26.511c19.831,-2.406 27.878,-13.084 32.253,-36.252l25.889,-136.089l58.874,126.882c9.177,19.368 19.319,28.917 38.795,26.554c19.831,-2.406 28.94,-13.213 32.253,-36.252l30.132,-195.891c0.718,-2.962 0.731,-5.838 0.344,-9.025c-1.761,-14.518 -14.341,-23.41 -28.506,-21.692c-13.81,1.676 -21.847,9.476 -23.755,23.362l-21.274,144.512l-55.568,-123.331c-9.789,-21.449 -20.156,-29.892 -39.986,-27.486c-17.352,2.106 -28.146,13.834 -32.028,35.146l-23.625,134.017l-53.498,-132.924c-5.743,-14.754 -16.206,-21.029 -30.725,-19.267c-18.768,2.277 -29.616,16.527 -27.425,34.586c0.387,3.187 1.611,7.351 3.232,11.825l30.614,70.915" style="fill:none;fill-rule:nonzero;stroke:#b27c67;stroke-width:14.47px;"/></g><g><path d="M436.152,356.793c-4.945,16.504 4.6,34.279 22.145,39.536c17.546,5.257 35.292,-4.341 40.237,-20.845l33.77,-112.709c4.945,-16.504 -4.6,-34.279 -22.145,-39.536c-17.545,-5.257 -35.292,4.341 -40.237,20.845l-33.77,112.709Zm-9.583,151.103c21.447,6.426 42.324,-7.937 48.957,-30.076c5.778,-19.283 -4.666,-42.578 -25.333,-48.771c-23.786,-7.127 -45.318,6.588 -51.104,25.897c-6.746,22.516 3.694,45.823 27.48,52.95Z" style="fill:#b27c67;fill-opacity:0.33;fill-rule:nonzero;"/><path d="M294.213,444.949c9.177,19.368 19.319,28.917 38.795,26.553c19.831,-2.406 28.94,-13.212 32.253,-36.251l30.132,-195.891c0.718,-2.962 0.731,-5.838 0.344,-9.025c-1.761,-14.518 -14.341,-23.411 -28.506,-21.692c-13.81,1.675 -21.847,9.476 -23.755,23.362l-21.274,144.511l-55.568,-123.33c-9.789,-21.45 -20.156,-29.892 -39.986,-27.486c-17.352,2.105 -28.146,13.834 -32.028,35.145l-23.625,134.018l-53.498,-132.925c-5.743,-14.753 -16.206,-21.028 -30.725,-19.266c-18.768,2.277 -29.616,16.527 -27.425,34.586c0.387,3.187 1.611,7.35 3.232,11.825l75.469,174.814c8.512,19.807 21.444,28.659 39.149,26.51c19.831,-2.406 27.878,-13.084 32.253,-36.252l25.889,-136.088l58.874,126.882Z" style="fill:#b27c67;fill-opacity:0.33;fill-rule:nonzero;"/></g></g><g><path d="M575.398,427.998l0,-69.466l-18.112,-0l-26.558,26.036l11.874,12.394l11.77,-11.665l-0,42.701l21.026,0Z" style="fill:#b27c67;fill-rule:nonzero;"/><path d="M622.582,427.998l-0,-51.146l18.54,0l-0,-18.32l-58.211,-0l-0,18.32l18.644,0l-0,51.146l21.027,0Z" style="fill:#b27c67;fill-rule:nonzero;"/></g></g></svg>