<?xml version="1.0" encoding="UTF-8" standalone="no"?><!DOCTYPE svg PUBLIC "-//W3C//DTD SVG 1.1//EN" "http://www.w3.org/Graphics/SVG/1.1/DTD/svg11.dtd"><svg width="100%" height="100%" viewBox="0 0 505 505" version="1.1" xmlns="http://www.w3.org/2000/svg" xmlns:xlink="http://www.w3.org/1999/xlink" xml:space="preserve" xmlns:serif="http://www.serif.com/" style="fill-rule:evenodd;clip-rule:evenodd;stroke-linejoin:round;stroke-miterlimit:2;"><rect id="Artboard1" x="-3743" y="-10116.7" width="8000" height="25016.7" style="fill:none;"/><g><g opacity="0.2"><path d="M424.966,401.803c-0.015,16.348 -13.46,29.797 -29.809,29.817l-232.677,0c-16.28,-0.088 -29.613,-13.537 -29.561,-29.817l0,-167.304c-0.052,-16.279 13.282,-29.727 29.561,-29.813l232.677,0c16.348,0.018 29.793,13.466 29.809,29.813l0,167.304Z" style="fill:#ffa900;"/><path d="M186.823,155.068c0.053,-48.095 39.611,-87.655 87.706,-87.711l5.492,0c48.095,0.056 87.653,39.616 87.706,87.711l-0,32.088l-22.162,-0l-0,-24.172c-0.041,-35.927 -29.592,-65.478 -65.519,-65.519l-3.952,0c-35.927,0.041 -65.478,29.592 -65.519,65.519l0,24.172l-23.752,-0l-0,-32.088Z" style="fill:#ffa900;"/></g><g><path d="M362.043,171.621l-9.166,-0l-0,-29.68c-0.06,-53.348 -43.939,-97.229 -97.287,-97.291l-5.078,-0c-53.348,0.062 -97.226,43.943 -97.287,97.291l0,29.679l-6.311,0c-23.931,0.092 -43.563,19.829 -43.527,43.76l0,154.686c-0.038,23.933 19.594,43.673 43.527,43.765l215.129,-0c23.996,-0.029 43.731,-19.769 43.756,-43.765l0,-154.685c-0.026,-23.995 -19.762,-43.732 -43.756,-43.76Zm-62.049,-0.012l-92.415,-0l-0,-22.349c0.028,-24.336 20.045,-44.352 44.381,-44.381l3.654,-0c24.335,0.029 44.352,20.045 44.381,44.381l-0.001,22.349Zm-130.573,-29.668c0.049,-44.468 36.624,-81.044 81.091,-81.095l5.078,-0c44.467,0.051 81.042,36.627 81.091,81.095l-0,29.668l-20.49,-0l-0,-22.349c-0.038,-33.218 -27.36,-60.54 -60.577,-60.577l-3.654,-0c-33.218,0.037 -60.54,27.359 -60.577,60.577l-0,22.349l-21.962,-0l0,-29.668Zm220.182,228.125c-0.015,15.115 -12.445,27.55 -27.56,27.568l-215.129,0c-15.052,-0.081 -27.379,-12.516 -27.331,-27.568l0,-154.685c-0.048,-15.052 12.28,-27.485 27.331,-27.564l215.129,-0c15.114,0.016 27.545,12.45 27.56,27.564l-0,154.685Z" style="fill:#ffa900;fill-rule:nonzero;"/><g><path d="M298.733,291.229c-1.325,4.42 1.232,9.181 5.931,10.588c4.699,1.408 9.452,-1.162 10.776,-5.582l9.045,-30.187c1.324,-4.42 -1.232,-9.18 -5.931,-10.588c-4.699,-1.408 -9.452,1.162 -10.777,5.583l-9.044,30.186Zm-2.567,40.469c5.744,1.721 11.336,-2.126 13.112,-8.055c1.548,-5.165 -1.249,-11.404 -6.785,-13.062c-6.37,-1.909 -12.137,1.764 -13.687,6.936c-1.806,6.03 0.99,12.272 7.36,14.181Z" style="fill:#ffa900;fill-rule:nonzero;"/><path d="M260.718,314.839c2.458,5.187 5.174,7.745 10.39,7.112c5.311,-0.645 7.751,-3.539 8.639,-9.709l8.069,-52.465c0.193,-0.793 0.196,-1.563 0.093,-2.417c-0.472,-3.888 -3.841,-6.27 -7.635,-5.809c-3.699,0.448 -5.851,2.538 -6.362,6.257l-5.698,38.703l-14.882,-33.031c-2.622,-5.744 -5.398,-8.005 -10.71,-7.361c-4.647,0.564 -7.538,3.705 -8.577,9.413l-6.328,35.893l-14.328,-35.601c-1.538,-3.951 -4.34,-5.631 -8.229,-5.16c-5.026,0.61 -7.931,4.427 -7.345,9.263c0.104,0.854 0.432,1.969 0.866,3.167l20.212,46.82c2.28,5.305 5.743,7.675 10.485,7.1c5.312,-0.644 7.467,-3.504 8.639,-9.709l6.933,-36.448l15.768,33.982Z" style="fill:#ffa900;fill-rule:nonzero;"/></g><path d="M179.829,357.496l-13.856,0c-0.906,-0.002 -1.65,-0.747 -1.653,-1.653l0,-36.441c0,-4.442 -3.655,-8.098 -8.098,-8.098c-4.442,0 -8.098,3.656 -8.098,8.098l0,36.441c0.01,9.788 8.061,17.839 17.849,17.849l13.856,0c4.442,0 8.098,-3.655 8.098,-8.098c-0,-4.442 -3.656,-8.098 -8.098,-8.098Z" style="fill:#ffa900;fill-rule:nonzero;"/><path d="M203.98,358.888c-0.442,-0.298 -0.901,-0.568 -1.376,-0.811c-0.503,-0.173 -1.018,-0.308 -1.542,-0.403c-1.572,-0.317 -3.202,-0.177 -4.697,0.403c-0.969,0.423 -1.847,1.029 -2.586,1.784c-0.805,0.732 -1.419,1.649 -1.788,2.673c-0.401,0.976 -0.607,2.021 -0.607,3.077c0,4.426 3.63,8.075 8.057,8.097c0.544,-0.015 1.085,-0.069 1.621,-0.162c0.535,-0.085 1.055,-0.249 1.542,-0.486c0.49,-0.179 0.952,-0.424 1.376,-0.727l1.21,-0.973c0.741,-0.785 1.345,-1.688 1.788,-2.673c0.387,-0.979 0.578,-2.024 0.561,-3.076c0.009,-2.151 -0.836,-4.22 -2.348,-5.75c-0.363,-0.373 -0.769,-0.699 -1.211,-0.973Z" style="fill:#ffa900;fill-rule:nonzero;"/><path d="M350.742,211.731l-13.856,0c-4.442,0 -8.098,3.656 -8.098,8.098c0,4.443 3.656,8.098 8.098,8.098l13.856,0c0.907,0.003 1.652,0.75 1.653,1.657l-0,36.441c-0,4.443 3.655,8.098 8.098,8.098c4.442,0 8.098,-3.655 8.098,-8.098l-0,-36.441c-0.008,-9.789 -8.06,-17.843 -17.849,-17.853Z" style="fill:#ffa900;fill-rule:nonzero;"/><path d="M311.525,214.096c-1.536,1.521 -2.412,3.588 -2.436,5.749c0.076,4.414 3.728,8.002 8.141,8.002c4.414,0 8.066,-3.588 8.142,-8.002c-0.024,-2.161 -0.9,-4.228 -2.436,-5.749c-3.195,-2.981 -8.216,-2.981 -11.411,-0Z" style="fill:#ffa900;fill-rule:nonzero;"/></g></g><g></g></svg>